<?xml version="1.0" standalone="no"?><!DOCTYPE svg PUBLIC "-//W3C//DTD SVG 1.1//EN" "http://www.w3.org/Graphics/SVG/1.1/DTD/svg11.dtd"><svg t="1690897305175" class="icon" viewBox="0 0 1024 1024" version="1.1" xmlns="http://www.w3.org/2000/svg" p-id="9860" xmlns:xlink="http://www.w3.org/1999/xlink" width="200" height="200"><path d="M512 512m-512 0a512 512 0 1 0 1024 0 512 512 0 1 0-1024 0Z" fill="#2c2c2c" p-id="9861" data-spm-anchor-id="a313x.7781069.0.i25.7ef53a81kNXtdD" class="selected"></path><path d="M712.656165 551.491581a43.802281 43.802281 0 0 1-11.680608 11.819663 200.378055 200.378055 0 0 1-76.480174 28.923411 92.888647 92.888647 0 0 1-39.630636 0.973384c-3.337317-1.668658-3.754481-2.920152-2.642042-7.230853a59.376426 59.376426 0 0 1 23.500272-27.810972c6.535578-4.58881 32.816947-20.58012 45.053775-27.810972a160.330255 160.330255 0 0 1 47.556762-19.189571 27.810972 27.810972 0 0 1 9.038566 0c2.224878 0.834329 4.58881 7.230853 5.562195 14.87887a192.590983 192.590983 0 0 1-0.27811 25.44704z" p-id="9862"></path><path d="M429.401412 591.261271a13.905486 13.905486 0 0 1-8.482346 3.615426 142.253123 142.253123 0 0 1-23.639327-0.695274 250.298751 250.298751 0 0 1-72.308528-20.719174A95.25258 95.25258 0 0 1 300.080391 556.219446l-3.337317-3.476372v-4.58881a118.613797 118.613797 0 0 1 0-24.89082 31.009234 31.009234 0 0 1 3.754482-10.56817c0.973384-1.251494 0.973384-1.251494 5.284084-1.251493a50.476915 50.476915 0 0 1 16.964694 3.198261 324.275937 324.275937 0 0 1 63.548071 31.704509 111.243889 111.243889 0 0 1 36.849539 28.645301 23.778381 23.778381 0 0 1 6.257468 16.269419z" p-id="9863"></path><path d="M599.604563 758.544269s-1.390549 6.118414-3.198262 13.071157l-3.337317 12.514938a16.964693 16.964693 0 0 1-3.754481 0h-3.893536l-5.284085 12.514937-5.979359 13.905487v1.668658l-2.502987-4.032591-2.502988-4.171646v-32.816947h-0.973384c-2.085823 0-16.547529 2.363933-22.944052 2.920152a326.36176 326.36176 0 0 1-78.983161-1.668658c-4.171646 0-7.787072-1.112439-7.926128-0.973384s0 7.787072 0 17.381857L458.881043 806.518197l-1.946768 3.059207-2.224878 3.198261s-1.529603-1.529603-4.310701-7.091798a81.903313 81.903313 0 0 1-6.813688-18.216186l-0.834329-3.476372h-7.369908l-0.973384-4.449755c0-2.363933-1.112439-6.118414-1.390548-8.204237v-3.754482l-3.198262-2.781097-3.893536-3.337316a2.502988 2.502988 0 0 1-0.834329-2.085823v-1.390549h30.03585V761.186312h40.325909l3.893537-5.979359 3.893536-5.979359h5.14503v-25.029875l-6.952743-1.112439a64.243346 64.243346 0 0 1-38.379142-32.956002 46.305269 46.305269 0 0 1-1.251494-15.7132 47.695817 47.695817 0 0 1 0-15.574144 17.520913 17.520913 0 0 1 12.375883-12.236828 249.464422 249.464422 0 0 1 35.876154 0h33.373167l3.754481 1.807713a21.553504 21.553504 0 0 1 9.038566 7.091798 19.884845 19.884845 0 0 1 3.754481 13.905486 104.152091 104.152091 0 0 1-1.807713 23.083107 52.145573 52.145573 0 0 1-6.952743 13.905486 64.799565 64.799565 0 0 1-26.976643 18.772407l-2.920152 1.112439V750.896252h5.284084l3.615427 5.42314 3.476371 5.423139h33.512222c0.695274 0 1.529603 0 2.642042-1.946768l1.529604-2.224878h13.905486a51.311244 51.311244 0 0 1 14.322651 0.973384z" p-id="9864"></path><path d="M536.056491 792.61271c-2.224878 1.390549-3.754481 1.946768-4.171646 1.668659S529.799022 792.61271 528.408474 792.61271l-3.198262-2.642042-3.754481 2.642042c-7.369908 7.926127-7.648017 8.204237-9.733841 8.343292s-4.032591 0-8.204237-6.396523l-3.893536-5.70125h-6.674633l-1.529604 3.198262-1.529603 3.198262-3.198262-1.251494a50.894079 50.894079 0 0 1-6.396523-2.502987l-3.615427-1.807714v-6.813688h63.965236v3.198262c0.695274 4.171646 0.695274 4.032591-4.58881 6.535578z" p-id="9865" data-spm-anchor-id="a313x.7781069.0.i24.7ef53a81kNXtdD" class="selected" fill="#2c2c2c"></path><path d="M836.693102 646.466051v-2.642042a255.165671 255.165671 0 0 0-187.724063 57.985877s-24.61271-112.912548-140.028246-112.912548-158.105378 112.912548-158.105377 112.912548c-64.660511-69.527431-151.291689-64.521456-182.579034-59.932645v2.224877a106.794134 106.794134 0 0 0 2.085823 37.266703c9.038566 34.207496 36.710483 72.030418 80.234655 109.019012 71.335144 60.62792 167.978273 104.291146 241.12113 109.436176 76.341119 5.14503 188.975557-39.491581 264.204237-104.569256a374.613797 374.613797 0 0 0 33.095057-33.373167A182.300923 182.300923 0 0 0 806.518197 737.825095s0.695274 0 0-0.834329 0 0 0-0.695274a7.230853 7.230853 0 0 1 1.529603-2.642043c1.807713-2.781097 9.038566-15.713199 10.01195-17.799022a169.368821 169.368821 0 0 0 13.905486-43.246062 157.827268 157.827268 0 0 0 4.727866-26.142314zM536.056491 792.61271c-2.224878 1.390549-3.754481 1.946768-4.171646 1.668659S529.799022 792.61271 528.408474 792.61271l-3.198262-2.642042-3.754481 2.642042c-7.369908 7.926127-7.648017 8.204237-9.733841 8.343292s-4.032591 0-8.204237-6.396523l-3.893536-5.70125h-6.674633l-1.529604 3.198262-1.529603 3.198262-3.198262-1.251494a50.894079 50.894079 0 0 1-6.396523-2.502987l-3.615427-1.807714v-6.813688h63.965236v3.198262c0.695274 4.171646 0.695274 4.032591-4.58881 6.535578z m60.210755-21.553503c-1.807713 6.813688-3.337317 12.375883-3.337317 12.514937a16.964693 16.964693 0 0 1-3.754481 0h-3.893536l-5.14503 12.653993-5.979359 13.905486v1.668658l-2.502987-4.032591-2.502988-4.171645v-32.399783h-0.973384c-2.085823 0-16.547529 2.363933-22.944052 2.920152a326.36176 326.36176 0 0 1-78.983161-1.668658c-4.171646 0-7.787072-1.112439-7.926128-0.973384s0 7.787072 0 17.381857L458.881043 806.518197l-1.946768 3.059207-2.224878 3.198261s-1.529603-1.529603-4.310701-7.091798a81.903313 81.903313 0 0 1-6.813688-18.216186l-0.834329-3.476372h-7.369908l-0.973384-4.449755c0-2.363933-1.112439-6.118414-1.390548-8.204237v-3.754482l-3.198262-2.781097-3.893536-3.337316a2.502988 2.502988 0 0 1-0.834329-2.085823v-1.390549h30.03585V761.186312h40.325909l3.893537-5.979359 3.893536-5.979359h5.14503v-25.029875l-6.952743-1.112439a64.243346 64.243346 0 0 1-38.379142-32.956002 46.305269 46.305269 0 0 1-1.251494-15.7132 47.695817 47.695817 0 0 1 0-15.574144 17.520913 17.520913 0 0 1 12.375883-12.236828 249.464422 249.464422 0 0 1 35.876154 0h33.373167l3.754481 1.807713a21.553504 21.553504 0 0 1 9.038566 7.091798 19.884845 19.884845 0 0 1 3.754481 13.905486 104.152091 104.152091 0 0 1-1.807713 23.083107 52.145573 52.145573 0 0 1-6.952743 13.905486 64.799565 64.799565 0 0 1-26.976643 18.772407l-2.920152 1.112439V750.896252h5.284084l3.615427 5.42314 3.476371 5.423139h33.512222c0.695274 0 1.529603 0 2.642042-1.946768l1.529604-2.224878h13.905486a49.642586 49.642586 0 0 1 13.905486 0 102.483433 102.483433 0 0 0-2.920152 13.905487z" fill="#FFFFFF" p-id="9866" data-spm-anchor-id="a313x.7781069.0.i23.7ef53a81kNXtdD" class=""></path><path d="M835.719718 634.090168c0-5.284085-0.695274-12.932102-1.112439-16.686583a351.25258 351.25258 0 0 0-45.609995-146.424769l-2.642042-5.005975v-0.973384c3.754481-11.124389 18.911461-57.985877 31.148289-111.243889 16.408474-72.586638 26.837588-157.549158-5.14503-182.996198 0 0-55.621945-4.032591-129.321021 68.554047a508.940793 508.940793 0 0 0-54.787616 64.93862l-5.14503-1.668658a378.646388 378.646388 0 0 0-91.915263-17.799023h-55.621945a327.891363 327.891363 0 0 0-90.941879 17.938077l-3.337317 1.251494a480.851711 480.851711 0 0 0-56.734383-64.521456c-77.036393-73.003802-134.326996-69.527431-134.326996-69.52743-33.929386 26.281369-22.387833 114.99837-4.866921 190.087995 11.541554 49.642586 25.725149 93.305812 31.009234 109.019012a22.665942 22.665942 0 0 1-1.251493 2.642042 434.268332 434.268332 0 0 0-46.722434 169.646931c31.287344-4.58881 117.779468-9.73384 182.579033 59.932645 0 0 42.828897-112.912548 158.105378-112.912547s140.1673 112.912548 140.1673 112.912547a255.443781 255.443781 0 0 1 187.028789-57.429657c-0.139055-2.502988-0.417165-6.118414-0.556219-9.733841zM238.618142 424.256382s-45.053775-112.356328-33.512221-176.599674a61.601304 61.601304 0 0 1 11.263443-27.810972s50.894079 5.005975 133.214558 96.365019a235.002716 235.002716 0 0 0-36.571429 23.778381 289.512222 289.512222 0 0 0-74.116241 83.432917z m190.78327 166.865834a13.905486 13.905486 0 0 1-8.482346 3.615427 142.253123 142.253123 0 0 1-23.639327-0.695275 250.298751 250.298751 0 0 1-72.308528-20.719174A95.25258 95.25258 0 0 1 300.080391 556.219446l-3.337317-3.476372v-4.58881a118.613797 118.613797 0 0 1 0-24.89082 31.009234 31.009234 0 0 1 3.754482-10.56817c0.973384-1.251494 0.973384-1.251494 5.284084-1.251493a50.476915 50.476915 0 0 1 16.964694 3.198261 324.275937 324.275937 0 0 1 63.548071 31.704509 111.243889 111.243889 0 0 1 36.849539 28.645301 23.778381 23.778381 0 0 1 6.257468 16.269419z m283.254753-39.76969a43.802281 43.802281 0 0 1-11.680608 11.819663 200.378055 200.378055 0 0 1-76.480174 28.923411 92.888647 92.888647 0 0 1-39.630636 0.973384c-3.337317-1.668658-3.754481-2.920152-2.642042-7.230853a59.376426 59.376426 0 0 1 23.500272-27.810972c6.535578-4.58881 32.816947-20.58012 45.053775-27.810972a160.330255 160.330255 0 0 1 47.556762-19.189571 27.810972 27.810972 0 0 1 9.038566 0c2.224878 0.834329 4.58881 7.230853 5.562195 14.87887a192.590983 192.590983 0 0 1-0.27811 25.586095z m-20.0239-211.08528a218.872352 218.872352 0 0 0-35.319935-23.639326c79.539381-91.359044 128.625747-96.504074 128.625747-96.504074a65.49484 65.49484 0 0 1 10.846279 27.810972c10.846279 63.826181-31.982618 176.321564-31.982618 176.321564a284.645301 284.645301 0 0 0-71.613253-83.432916z" fill="#FFA409" p-id="9867"></path><path d="M796.645301 247.517653c-9.455731-1.112439-53.814231-1.390549-104.013036 92.749593a218.872352 218.872352 0 0 0-35.319935-23.639326c79.539381-91.359044 128.625747-96.504074 128.625747-96.504074a63.826181 63.826181 0 0 1 10.707224 27.393807z" fill="#FF9300" p-id="9868"></path><path d="M764.801738 424.256382a285.062466 285.062466 0 0 0-71.752308-83.432916c50.198805-94.140141 94.418251-93.862032 104.013036-92.749593 10.707224 63.826181-32.260728 176.18251-32.260728 176.182509z" fill="#FF8300" p-id="9869"></path><path d="M798.453015 247.934818h-1.807714z" fill="#FF8300" p-id="9870"></path><path d="M349.583922 316.488865a226.659424 226.659424 0 0 0-36.571429 23.639326c-52.006518-94.279196-97.338403-93.862032-107.628463-92.749592a60.0717 60.0717 0 0 1 11.124389-27.810973s50.755024 5.562194 133.075503 96.921239z" fill="#FF9300" p-id="9871"></path><path d="M312.873438 340.267246a288.538838 288.538838 0 0 0-74.255296 83.432917s-45.053775-112.356328-33.512221-176.738729c9.73384-0.556219 55.760999-0.834329 107.767517 93.305812z" fill="#FF8300" p-id="9872"></path><path d="M205.105921 247.517653h-1.807714z" fill="#FF8300" p-id="9873"></path><path d="M642.71157 486.692015s-38.379142 2.363933-33.651277-27.810972a39.908745 39.908745 0 0 1 43.246062-32.538838c8.482347 1.251494 41.716458 13.905486 36.154264 38.518197s-13.905486 20.441065-19.328626 21.692558a205.66214 205.66214 0 0 1-26.420423 0.139055z" fill="#FFFFFF" p-id="9874"></path><path d="M359.039652 486.692015s-38.518197 2.363933-33.651276-27.810972a39.908745 39.908745 0 0 1 43.246062-32.538838c8.482347 1.251494 41.716458 13.905486 36.154264 38.518197s-13.905486 20.441065-19.328626 21.692558a205.66214 205.66214 0 0 1-26.420424 0.139055z" fill="#FFFFFF" p-id="9875"></path></svg>